<svg width="163" height="119" viewBox="0 0 163 119" fill="none" xmlns="http://www.w3.org/2000/svg">
<path d="M160.661 83.5352C161.509 83.5352 162.017 82.921 162.017 82.3067C162.017 81.6925 161.339 81.0782 160.661 81.0782H156.591V60.8087C157.948 60.9623 159.304 61.1158 160.661 61.1158C161.509 61.1158 162.017 60.5016 162.017 59.8873C162.017 59.2731 161.339 58.6589 160.661 58.6589C139.464 58.6589 122.338 42.8425 122.338 23.6478V1.22844C122.338 0.460653 121.659 0 120.981 0C120.303 0 119.624 0.61421 119.624 1.22844V23.6478C119.624 42.8425 102.498 58.6589 81.301 58.6589C60.1044 58.6589 42.9776 42.8425 42.9776 23.6478V1.53557C42.9776 0.767787 42.2993 0.307086 41.621 0.307086C40.7731 0.307086 40.2644 0.921344 40.2644 1.53557V23.6478C40.2644 42.8425 23.1376 58.6589 1.94104 58.6589C1.09318 58.6589 0.584473 59.2731 0.584473 59.8873C0.584473 60.5016 1.26275 61.1158 1.94104 61.1158C3.29762 61.1158 4.65421 60.9623 6.01079 60.8087V81.0782H1.94104C1.09318 81.0782 0.584473 81.6925 0.584473 82.3067C0.584473 82.921 1.26275 83.5352 1.94104 83.5352H40.7731V90.4452H2.2802C1.43234 90.4452 0.923612 91.0595 0.923612 91.6737C0.923612 92.2879 1.60191 92.9022 2.2802 92.9022H40.6036V104.265C40.6036 105.033 41.2819 105.494 41.9601 105.494C42.808 105.494 43.3167 104.88 43.3167 104.265V92.9022H119.794V104.265C119.794 105.033 120.472 105.494 121.15 105.494C121.829 105.494 122.507 104.88 122.507 104.265V92.9022H160.83C161.678 92.9022 162.187 92.2879 162.187 91.6737C162.187 91.0595 161.509 90.4452 160.83 90.4452H122.168V83.5352H160.661V83.5352ZM133.868 51.9023C136.412 54.0521 139.464 55.7413 142.686 57.1233V81.0782H133.868V51.9023ZM154.048 81.0782H145.23V58.1982C147.943 59.2731 150.826 59.8873 154.048 60.348V81.0782ZM131.325 49.599V81.0782H122.507V36.7002C124.372 41.614 127.425 46.0672 131.325 49.599ZM119.794 81.0782H111.315V49.2919C115.046 45.6065 117.929 41.4605 119.794 36.8538V81.0782ZM108.602 51.5953V81.0782H99.7844V56.9698C103.006 55.5878 105.889 53.7451 108.602 51.5953ZM88.423 81.0782V60.5016C91.4753 60.0409 94.358 59.2731 97.2408 58.1982V81.2318H88.423V81.0782ZM85.8794 60.8087V81.0782H77.0617V60.8087C78.4182 60.9623 79.9444 61.1158 81.4705 61.1158C82.8271 61.1158 84.3533 60.9623 85.8794 60.8087ZM65.7003 81.0782V58.0446C68.4135 59.1195 71.2962 59.8873 74.5181 60.348V81.0782H65.7003ZM63.1567 56.9698V81.0782H54.3389V51.5953C57.0521 53.7451 59.9348 55.5878 63.1567 56.9698ZM51.6258 49.2919V81.0782H43.1472V36.7002C45.182 41.4605 48.0648 45.7601 51.6258 49.2919ZM29.0726 81.0782H20.2549V57.1233C23.4768 55.7413 26.3595 53.8986 29.0726 51.9023V81.0782ZM8.89351 60.5016C11.9458 60.0409 14.8286 59.2731 17.7113 58.3518V81.2318H8.89351V60.5016ZM31.6162 81.0782V49.599C35.5164 45.9136 38.3991 41.614 40.434 36.8538V81.2318L31.6162 81.0782ZM119.794 90.2917H43.3167V83.5352H119.794V90.2917Z" fill="#C6CFFF"/>
<path d="M42.7504 102.554C44.5478 104.211 41.8706 112.498 36.4093 114.71C30.948 116.922 25.0152 115.026 23.7491 110.912C22.2746 107.271 24.9344 101.73 30.3957 99.5178C35.857 97.306 41.2759 98.9128 42.7504 102.554Z" fill="#C6CFFF"/>
<path d="M122.122 103.045C123.92 104.702 120.263 112.594 114.801 114.806C109.34 117.017 103.407 115.122 102.141 111.008C100.667 107.367 103.327 101.825 108.788 99.6135C114.249 97.4017 120.648 99.4037 122.122 103.045Z" fill="#C6CFFF"/>
</svg>
