<svg width="61" height="61" viewBox="0 0 61 61" fill="none" xmlns="http://www.w3.org/2000/svg">
<path d="M4.53857 2.68047C4.53857 4.32353 4.53857 5.9666 4.53857 7.61657C4.53857 10.24 4.53857 12.8633 4.53857 15.4867C4.53857 16.0942 4.53857 16.6949 4.53857 17.3024C4.53857 18.2344 5.36993 19.0283 6.34587 19.0283C8.06642 19.0283 9.78697 19.0283 11.5147 19.0283C14.2618 19.0283 17.0089 19.0283 19.756 19.0283C20.3922 19.0283 21.0211 19.0283 21.6573 19.0283C22.6043 19.0283 23.508 18.2344 23.4646 17.3024C23.4212 16.3704 22.6694 15.5765 21.6573 15.5765C19.9368 15.5765 18.2162 15.5765 16.4884 15.5765C13.7413 15.5765 10.9942 15.5765 8.24715 15.5765C7.61098 15.5765 6.98204 15.5765 6.34587 15.5765C6.9459 16.1495 7.55315 16.7294 8.15317 17.3024C8.15317 15.6593 8.15317 14.0162 8.15317 12.3663C8.15317 9.74289 8.15317 7.11951 8.15317 4.49612C8.15317 3.8886 8.15317 3.28799 8.15317 2.68047C8.15317 1.77609 7.32182 0.913137 6.34587 0.954558C5.3627 0.99598 4.53857 1.71396 4.53857 2.68047Z" fill="#C6CFFF"/>
<path d="M8.47095 18.11C8.66614 17.8339 8.87579 17.5508 9.07821 17.2816C9.17219 17.1573 9.26617 17.0399 9.36015 16.9157C9.43967 16.819 9.6204 16.6395 9.30231 16.9847C9.3746 16.9088 9.43244 16.8259 9.4975 16.7431C9.92402 16.2322 10.3722 15.7282 10.8421 15.245C11.7892 14.2647 12.8085 13.3603 13.8929 12.525C13.9507 12.4835 14.0013 12.4421 14.0591 12.4007C14.0953 12.3731 14.3772 12.166 14.1242 12.3455C13.8712 12.525 14.1531 12.3248 14.1965 12.2971C14.2543 12.2557 14.3121 12.2143 14.3628 12.1729C14.6447 11.9727 14.9339 11.7725 15.223 11.5861C15.8086 11.1995 16.4014 10.8405 17.0159 10.5022C17.6303 10.157 18.2593 9.83944 18.8955 9.54258C19.1846 9.41142 19.4738 9.28025 19.7702 9.15598C19.9003 9.10075 20.4787 8.91435 19.9292 9.08694C20.0955 9.03171 20.2618 8.95577 20.428 8.89364C21.7582 8.39658 23.1245 7.98927 24.5198 7.69241C25.221 7.54053 25.9222 7.41626 26.6307 7.31961C26.6813 7.31271 27.05 7.26438 26.7175 7.30581C26.3849 7.34723 26.7608 7.2989 26.8114 7.2989C26.9777 7.27819 27.144 7.26438 27.3102 7.24367C27.7006 7.20225 28.091 7.17464 28.4814 7.14702C29.8549 7.06418 31.2429 7.07799 32.6165 7.18154C32.9129 7.20225 33.2165 7.22987 33.5129 7.26438C33.6792 7.28509 33.8454 7.30581 34.0045 7.31961C33.3611 7.24367 34.0189 7.32652 34.1635 7.34723C34.7925 7.44388 35.4214 7.55434 36.0503 7.69241C37.301 7.96165 38.5227 8.31374 39.7228 8.74176C40.0047 8.84532 40.2939 8.95578 40.5758 9.05933C40.8433 9.16288 40.424 8.9972 40.4095 8.99029C40.4818 9.02481 40.5541 9.05243 40.6264 9.08004C40.7855 9.14908 40.9445 9.21811 41.1108 9.28715C41.6891 9.54258 42.2602 9.81183 42.8169 10.1018C43.9013 10.6679 44.9495 11.2961 45.9471 11.9865C46.0772 12.0762 46.2001 12.166 46.3303 12.2557C46.3809 12.2902 46.4315 12.3317 46.4821 12.3662C46.7134 12.5319 46.352 12.2695 46.3447 12.2626C46.5977 12.4628 46.8652 12.6561 47.1182 12.8563C47.5881 13.236 48.0508 13.6226 48.4918 14.0299C49.381 14.8377 50.2123 15.7075 50.9859 16.6188C51.0871 16.7362 51.1811 16.8604 51.2823 16.9709C50.8919 16.5153 51.2678 16.9502 51.3473 17.0537C51.5353 17.2954 51.7232 17.537 51.904 17.7855C52.2654 18.2826 52.6124 18.7866 52.9377 19.3043C53.5739 20.3192 54.145 21.3754 54.6366 22.4662C54.6655 22.5214 54.6872 22.5767 54.7089 22.6319C54.492 22.1693 54.6077 22.4041 54.6583 22.5145C54.7089 22.6457 54.7667 22.77 54.8173 22.9011C54.9402 23.198 55.0559 23.5017 55.1716 23.8055C55.3812 24.3716 55.5692 24.9446 55.7354 25.5245C55.9089 26.1251 56.0608 26.7326 56.1909 27.3402C56.2487 27.6163 56.3066 27.8925 56.3572 28.1686C56.3861 28.3205 56.4078 28.4793 56.4367 28.6311C56.4439 28.6933 56.4584 28.7554 56.4656 28.8175C56.4728 28.8797 56.4873 28.9418 56.4945 29.0039C56.4801 28.9142 56.4656 28.8244 56.4584 28.7347C56.5957 29.9981 56.7114 31.2476 56.6969 32.5248C56.6897 33.153 56.6608 33.7813 56.6102 34.4026C56.5813 34.7202 56.5523 35.0377 56.5162 35.3553C56.5017 35.4796 56.4873 35.6038 56.4656 35.735C56.4222 36.094 56.5307 35.2932 56.4801 35.6521C56.4656 35.7488 56.4511 35.8385 56.4367 35.9352C56.2415 37.1364 55.9668 38.3308 55.6053 39.4906C55.4246 40.0843 55.2149 40.6642 54.9908 41.2441C54.8896 41.4995 54.7812 41.7619 54.6728 42.0173C54.4848 42.4522 54.8246 41.679 54.6294 42.1139C54.5643 42.252 54.4993 42.3901 54.4342 42.5351C53.9137 43.6258 53.3209 44.689 52.6558 45.7038C52.3305 46.2009 51.9835 46.6911 51.622 47.1674C51.5281 47.2917 51.4341 47.409 51.3401 47.5333C51.2895 47.5954 50.9859 47.9751 51.1955 47.7197C51.3979 47.4712 51.1015 47.8302 51.0437 47.8992C50.928 48.0373 50.8051 48.1822 50.6822 48.3203C49.8943 49.2247 49.0484 50.0738 48.1448 50.8678C47.6821 51.2751 47.205 51.6686 46.7134 52.0483C46.6122 52.1242 46.5182 52.2002 46.417 52.2761C46.1351 52.4901 46.7712 52.0207 46.4821 52.2278C46.4315 52.2623 46.3809 52.3037 46.3303 52.3382C46.0772 52.5177 45.8242 52.6972 45.564 52.8698C44.5374 53.5533 43.4675 54.1815 42.3542 54.7269C41.8048 55.003 41.2409 55.2585 40.6698 55.4932C40.5975 55.5208 40.5252 55.5553 40.4529 55.5829C40.2288 55.6796 40.9011 55.4104 40.5758 55.5346C40.4457 55.5829 40.3083 55.6382 40.1782 55.6865C39.8674 55.8039 39.5493 55.9143 39.2312 56.0248C38.0384 56.4252 36.8166 56.7566 35.5804 56.9982C35.2913 57.0534 35.0021 57.1087 34.7129 57.157C34.5539 57.1846 34.3876 57.2122 34.2286 57.2329C34.1491 57.2467 34.0623 57.2536 33.9828 57.2674C33.9105 57.2743 33.5346 57.3227 33.8816 57.2812C34.2286 57.2398 33.7225 57.302 33.6286 57.3089C33.4623 57.3296 33.296 57.3434 33.1297 57.3572C32.7972 57.3917 32.4647 57.4124 32.1321 57.4331C30.8019 57.516 29.4645 57.5091 28.1344 57.4124C27.8163 57.3917 27.5054 57.3641 27.1873 57.3296C27.0355 57.3158 26.891 57.295 26.7391 57.2812C26.609 57.2674 26.3343 57.2191 26.8765 57.302C26.7753 57.2881 26.6813 57.2743 26.5801 57.2605C25.9295 57.1708 25.2861 57.0534 24.6427 56.9153C23.4065 56.653 22.192 56.3147 21.0136 55.8936C20.7461 55.797 20.4714 55.7003 20.2039 55.5968C20.1172 55.5622 20.0304 55.5208 19.9365 55.4932C19.9509 55.5001 20.3702 55.6727 20.1027 55.5622C19.9437 55.4932 19.7774 55.4311 19.6184 55.362C19.0545 55.1204 18.4979 54.8581 17.9484 54.575C16.8424 54.0089 15.7797 53.3807 14.7604 52.6834C14.5146 52.5177 14.2832 52.3382 14.0374 52.1725C14.0519 52.1795 14.3989 52.4487 14.182 52.2761C14.117 52.2278 14.0591 52.1795 13.9941 52.138C13.8567 52.0345 13.7266 51.9309 13.5892 51.8274C13.1049 51.4408 12.635 51.0404 12.1723 50.6261C11.2831 49.8184 10.4445 48.9555 9.66377 48.0442C9.57702 47.9406 9.48304 47.8302 9.39629 47.7266C9.31677 47.63 9.16496 47.4228 9.47581 47.8233C9.43967 47.7749 9.39629 47.7266 9.36015 47.6783C9.15773 47.4228 8.96254 47.1674 8.77458 46.912C8.42035 46.4287 8.08058 45.9386 7.76249 45.4346C7.11909 44.4198 6.54076 43.3704 6.04194 42.2865C5.98411 42.1623 5.77446 41.6514 5.99857 42.1968C5.94074 42.0518 5.87567 41.9137 5.81784 41.7688C5.70217 41.4857 5.58651 41.1958 5.47807 40.9058C5.26842 40.3397 5.07323 39.7667 4.89973 39.1868C4.5455 37.9925 4.31417 36.7843 4.10452 35.5624C4.20573 36.1492 4.11898 35.6383 4.09729 35.5003C4.08283 35.3553 4.06114 35.2172 4.04669 35.0722C4.01054 34.7547 3.98162 34.4371 3.95994 34.1195C3.91656 33.5051 3.89487 32.8976 3.89487 32.2832C3.89487 31.3788 3.06351 30.5158 2.08757 30.5573C1.11163 30.5987 0.280273 31.3167 0.280273 32.2832C0.287503 37.5506 1.81286 42.7974 4.71177 47.2848C7.5167 51.6272 11.5506 55.2654 16.2857 57.6402C21.1871 60.0979 26.7897 61.2577 32.3201 60.8849C37.7637 60.519 43.0916 58.7724 47.5448 55.7417C51.9112 52.7732 55.4824 48.7553 57.6584 44.0677C59.9934 39.028 60.7742 33.5534 59.979 28.0996C59.2272 22.9564 56.9066 18.1238 53.4872 14.1059C50.1111 10.1363 45.5784 7.12631 40.5541 5.35898C35.0889 3.43286 29.0163 3.14291 23.3559 4.41318C17.5364 5.71797 12.1289 8.76938 8.11672 13.0013C7.11187 14.0576 6.19376 15.1898 5.35517 16.3703C4.82021 17.1228 5.18167 18.3171 6.0058 18.7313C6.91668 19.187 7.90708 18.9108 8.47095 18.11Z" fill="#C6CFFF"/>
<ellipse cx="29.7446" cy="32.2662" rx="12" ry="11.4596" fill="#C6CFFF"/>
<path d="M25.5861 28.4433V35H24.9117V29.0428H23.3662V28.4433H25.5861ZM28.8769 31.1316C29.826 31.1316 30.516 31.3033 30.9469 31.6467C31.384 31.9839 31.6026 32.4585 31.6026 33.0705C31.6026 33.4514 31.512 33.7917 31.3309 34.0914C31.1561 34.3912 30.8907 34.6285 30.5348 34.8033C30.1788 34.9719 29.7417 35.0562 29.2234 35.0562C28.7551 35.0562 28.3086 34.9813 27.884 34.8314C27.4656 34.6753 27.1284 34.4692 26.8724 34.2132L27.2002 33.6793C27.4188 33.9041 27.706 34.0883 28.062 34.2319C28.4179 34.3693 28.8019 34.438 29.2141 34.438C29.7573 34.438 30.1757 34.3162 30.4692 34.0727C30.7689 33.8292 30.9188 33.5045 30.9188 33.0986C30.9188 32.649 30.7502 32.3086 30.413 32.0776C30.0821 31.8466 29.5201 31.731 28.727 31.731H27.3314L27.6686 28.4433H31.256V29.0428H28.2587L28.0339 31.1316H28.8769ZM34.2197 35.0468C33.82 35.0468 33.436 34.9906 33.0676 34.8782C32.7054 34.7596 32.4213 34.6128 32.2152 34.438L32.5149 33.9135C32.721 34.0758 32.9802 34.2101 33.2924 34.3162C33.6046 34.4161 33.9293 34.4661 34.2665 34.4661C34.7161 34.4661 35.0471 34.3974 35.2594 34.26C35.4779 34.1164 35.5872 33.9166 35.5872 33.6606C35.5872 33.4795 35.5279 33.339 35.4092 33.2391C35.2906 33.1329 35.1407 33.0549 34.9596 33.0049C34.7786 32.9487 34.5381 32.8956 34.2384 32.8457C33.8388 32.7707 33.5172 32.6958 33.2736 32.6209C33.0301 32.5397 32.8209 32.4054 32.6461 32.2181C32.4775 32.0308 32.3932 31.7716 32.3932 31.4407C32.3932 31.0285 32.5649 30.6913 32.9083 30.4291C33.2518 30.1668 33.7295 30.0357 34.3414 30.0357C34.6599 30.0357 34.9784 30.0794 35.2968 30.1668C35.6153 30.248 35.8776 30.3573 36.0836 30.4946L35.7933 31.0285C35.3874 30.7475 34.9034 30.607 34.3414 30.607C33.9168 30.607 33.5952 30.682 33.3767 30.8318C33.1644 30.9817 33.0582 31.1784 33.0582 31.4219C33.0582 31.6093 33.1175 31.7591 33.2362 31.8715C33.3611 31.9839 33.5141 32.0682 33.6951 32.1244C33.8762 32.1744 34.126 32.2275 34.4445 32.2837C34.8379 32.3586 35.1532 32.4335 35.3905 32.5085C35.6278 32.5834 35.8307 32.7114 35.9993 32.8925C36.1679 33.0736 36.2522 33.3234 36.2522 33.6418C36.2522 34.0727 36.0712 34.4161 35.709 34.6722C35.353 34.9219 34.8566 35.0468 34.2197 35.0468Z" fill="black"/>
</svg>
