<svg width="60" height="60" viewBox="0 0 60 60" fill="none" xmlns="http://www.w3.org/2000/svg">
<path d="M55.7417 1.72734C55.7417 3.37041 55.7417 5.01347 55.7417 6.66344C55.7417 9.28683 55.7417 11.9102 55.7417 14.5336C55.7417 15.1411 55.7417 15.7417 55.7417 16.3492C55.7417 17.2812 54.9103 18.0752 53.9344 18.0752C52.2139 18.0752 50.4933 18.0752 48.7655 18.0752C46.0184 18.0752 43.2713 18.0752 40.5242 18.0752C39.8881 18.0752 39.2591 18.0752 38.623 18.0752C37.6759 18.0752 36.7723 17.2812 36.8157 16.3492C36.859 15.4173 37.6109 14.6233 38.623 14.6233C40.3435 14.6233 42.0641 14.6233 43.7918 14.6233C46.5389 14.6233 49.286 14.6233 52.0331 14.6233C52.6693 14.6233 53.2982 14.6233 53.9344 14.6233C53.3344 15.1963 52.7271 15.7762 52.1271 16.3492C52.1271 14.7062 52.1271 13.0631 52.1271 11.4131C52.1271 8.78976 52.1271 6.16638 52.1271 3.543C52.1271 2.93548 52.1271 2.33486 52.1271 1.72734C52.1271 0.822966 52.9585 -0.0399884 53.9344 0.00143343C54.9176 0.0428553 55.7417 0.760834 55.7417 1.72734Z" fill="#C6CFFF"/>
<path d="M51.8093 17.1569C51.6141 16.8807 51.4045 16.5977 51.2021 16.3284C51.1081 16.2042 51.0141 16.0868 50.9201 15.9625C50.8406 15.8659 50.6599 15.6864 50.978 16.0316C50.9057 15.9556 50.8478 15.8728 50.7828 15.79C50.3563 15.2791 49.908 14.7751 49.4381 14.2919C48.4911 13.3115 47.4718 12.4072 46.3874 11.5718C46.3296 11.5304 46.279 11.489 46.2211 11.4476C46.185 11.42 45.9031 11.2128 46.1561 11.3923C46.4091 11.5718 46.1272 11.3716 46.0838 11.344C46.026 11.3026 45.9681 11.2612 45.9175 11.2197C45.6356 11.0195 45.3464 10.8193 45.0572 10.6329C44.4717 10.2463 43.8789 9.88734 43.2644 9.54906C42.6499 9.20388 42.021 8.88632 41.3848 8.58946C41.0956 8.45829 40.8065 8.32712 40.5101 8.20286C40.38 8.14763 39.8016 7.96123 40.351 8.13382C40.1848 8.07859 40.0185 8.00265 39.8522 7.94052C38.5221 7.44346 37.1557 7.03614 35.7605 6.73928C35.0593 6.5874 34.358 6.46314 33.6496 6.36649C33.599 6.35958 33.2303 6.31126 33.5628 6.35268C33.8954 6.3941 33.5194 6.34578 33.4688 6.34578C33.3026 6.32507 33.1363 6.31126 32.97 6.29055C32.5797 6.24913 32.1893 6.22151 31.7989 6.1939C30.4254 6.11105 29.0373 6.12486 27.6638 6.22842C27.3674 6.24913 27.0638 6.27674 26.7674 6.31126C26.6011 6.33197 26.4348 6.35268 26.2758 6.36649C26.9192 6.29055 26.2613 6.37339 26.1167 6.3941C25.4878 6.49075 24.8589 6.60121 24.2299 6.73928C22.9793 7.00853 21.7575 7.36061 20.5575 7.78864C20.2756 7.89219 19.9864 8.00265 19.7045 8.1062C19.437 8.20976 19.8563 8.04407 19.8707 8.03717C19.7984 8.07169 19.7261 8.0993 19.6538 8.12692C19.4948 8.19595 19.3358 8.26499 19.1695 8.33403C18.5912 8.58946 18.0201 8.8587 17.4634 9.14865C16.379 9.71475 15.3308 10.343 14.3332 11.0333C14.203 11.1231 14.0801 11.2128 13.95 11.3026C13.8994 11.3371 13.8488 11.3785 13.7982 11.413C13.5669 11.5787 13.9283 11.3164 13.9356 11.3095C13.6825 11.5097 13.4151 11.703 13.162 11.9032C12.6921 12.2829 12.2295 12.6695 11.7885 13.0768C10.8993 13.8845 10.0679 14.7544 9.29441 15.6657C9.1932 15.783 9.09922 15.9073 8.99801 16.0178C9.38839 15.5621 9.01247 15.9971 8.93295 16.1006C8.74499 16.3422 8.55703 16.5839 8.3763 16.8324C8.01484 17.3295 7.66784 17.8334 7.34253 18.3512C6.70636 19.366 6.13525 20.4223 5.64366 21.5131C5.61475 21.5683 5.59306 21.6235 5.57137 21.6788C5.78825 21.2162 5.67258 21.4509 5.62197 21.5614C5.57137 21.6926 5.51354 21.8168 5.46293 21.948C5.34004 22.2449 5.22437 22.5486 5.1087 22.8524C4.89906 23.4185 4.7111 23.9915 4.54483 24.5714C4.37132 25.172 4.21951 25.7795 4.08939 26.387C4.03155 26.6632 3.97372 26.9393 3.92311 27.2155C3.8942 27.3674 3.87251 27.5261 3.84359 27.678C3.83636 27.7401 3.8219 27.8023 3.81467 27.8644C3.80744 27.9265 3.79299 27.9887 3.78576 28.0508C3.80022 27.9611 3.81468 27.8713 3.82191 27.7816C3.68455 29.0449 3.56888 30.2945 3.58334 31.5717C3.59057 32.1999 3.61949 32.8281 3.67009 33.4495C3.69901 33.767 3.72793 34.0846 3.76407 34.4022C3.77853 34.5264 3.79299 34.6507 3.81467 34.7819C3.85805 35.1409 3.74961 34.34 3.80022 34.699C3.81468 34.7957 3.82913 34.8854 3.84359 34.9821C4.03878 36.1833 4.31349 37.3776 4.67495 38.5374C4.85568 39.1312 5.06533 39.7111 5.28943 40.291C5.39064 40.5464 5.49908 40.8087 5.60752 41.0642C5.79548 41.4991 5.4557 40.7259 5.65089 41.1608C5.71595 41.2989 5.78102 41.437 5.84608 41.5819C6.36658 42.6727 6.95938 43.7359 7.62446 44.7507C7.94978 45.2478 8.29678 45.7379 8.65824 46.2143C8.75222 46.3386 8.8462 46.4559 8.94018 46.5802C8.99078 46.6423 9.29441 47.022 9.08476 46.7666C8.88234 46.518 9.17874 46.877 9.23657 46.9461C9.35224 47.0841 9.47514 47.2291 9.59803 47.3672C10.386 48.2716 11.2318 49.1207 12.1355 49.9146C12.5982 50.322 13.0753 50.7155 13.5669 51.0952C13.6681 51.1711 13.7621 51.247 13.8633 51.323C14.1452 51.537 13.509 51.0675 13.7982 51.2747C13.8488 51.3092 13.8994 51.3506 13.95 51.3851C14.203 51.5646 14.4561 51.7441 14.7163 51.9167C15.7429 52.6002 16.8128 53.2284 17.9261 53.7738C18.4755 54.0499 19.0394 54.3054 19.6105 54.5401C19.6828 54.5677 19.7551 54.6022 19.8273 54.6298C20.0515 54.7265 19.3791 54.4572 19.7045 54.5815C19.8346 54.6298 19.9719 54.6851 20.1021 54.7334C20.4129 54.8507 20.731 54.9612 21.0491 55.0717C22.2419 55.4721 23.4636 55.8034 24.6998 56.0451C24.989 56.1003 25.2782 56.1555 25.5673 56.2039C25.7264 56.2315 25.8926 56.2591 26.0517 56.2798C26.1312 56.2936 26.218 56.3005 26.2975 56.3143C26.3698 56.3212 26.7457 56.3695 26.3987 56.3281C26.0517 56.2867 26.5577 56.3488 26.6517 56.3557C26.818 56.3764 26.9843 56.3903 27.1505 56.4041C27.4831 56.4386 27.8156 56.4593 28.1482 56.48C29.4783 56.5628 30.8157 56.5559 32.1459 56.4593C32.464 56.4386 32.7748 56.411 33.0929 56.3764C33.2447 56.3626 33.3893 56.3419 33.5411 56.3281C33.6713 56.3143 33.946 56.266 33.4038 56.3488C33.505 56.335 33.599 56.3212 33.7002 56.3074C34.3508 56.2177 34.9942 56.1003 35.6376 55.9622C36.8738 55.6999 38.0883 55.3616 39.2667 54.9405C39.5341 54.8438 39.8089 54.7472 40.0763 54.6436C40.1631 54.6091 40.2498 54.5677 40.3438 54.5401C40.3294 54.547 39.9101 54.7196 40.1775 54.6091C40.3366 54.5401 40.5029 54.4779 40.6619 54.4089C41.2258 54.1673 41.7824 53.9049 42.3318 53.6219C43.4379 53.0558 44.5006 52.4276 45.5199 51.7303C45.7657 51.5646 45.997 51.3851 46.2428 51.2194C46.2284 51.2263 45.8814 51.4956 46.0983 51.323C46.1633 51.2747 46.2211 51.2263 46.2862 51.1849C46.4236 51.0814 46.5537 50.9778 46.691 50.8742C47.1754 50.4876 47.6453 50.0872 48.108 49.673C48.9972 48.8653 49.8357 48.0023 50.6165 47.091C50.7033 46.9875 50.7972 46.877 50.884 46.7735C50.9635 46.6768 51.1153 46.4697 50.8045 46.8701C50.8406 46.8218 50.884 46.7735 50.9201 46.7252C51.1225 46.4697 51.3177 46.2143 51.5057 45.9589C51.8599 45.4756 52.1997 44.9854 52.5178 44.4815C53.1612 43.4666 53.7395 42.4173 54.2383 41.3334C54.2962 41.2091 54.5058 40.6983 54.2817 41.2437C54.3395 41.0987 54.4046 40.9606 54.4624 40.8156C54.5781 40.5326 54.6938 40.2426 54.8022 39.9527C55.0119 39.3866 55.207 38.8136 55.3805 38.2337C55.7348 37.0394 55.9661 35.8312 56.1758 34.6093C56.0745 35.1961 56.1613 34.6852 56.183 34.5471C56.1974 34.4022 56.2191 34.2641 56.2336 34.1191C56.2697 33.8015 56.2987 33.484 56.3203 33.1664C56.3637 32.552 56.3854 31.9445 56.3854 31.33C56.3854 30.4257 57.2168 29.5627 58.1927 29.6041C59.1686 29.6456 60 30.3635 60 31.33C59.9928 36.5975 58.4674 41.8443 55.5685 46.3316C52.7636 50.674 48.7297 54.3123 43.9946 56.6871C39.0932 59.1448 33.4905 60.3046 27.9602 59.9318C22.5166 59.5659 17.1887 57.8193 12.7355 54.7886C8.36907 51.82 4.79784 47.8021 2.62186 43.1146C0.286826 38.0749 -0.493926 32.6003 0.301286 27.1464C1.05312 22.0032 3.37369 17.1707 6.7931 13.1528C10.1691 9.18317 14.7018 6.17319 19.7261 4.40585C25.1914 2.47974 31.2639 2.18979 36.9244 3.46006C42.7439 4.76484 48.1513 7.81625 52.1635 12.0482C53.1684 13.1044 54.0865 14.2366 54.9251 15.4172C55.4601 16.1697 55.0986 17.364 54.2745 17.7782C53.3636 18.2338 52.3732 17.9577 51.8093 17.1569Z" fill="#C6CFFF"/>
<ellipse cx="29.6797" cy="31.2799" rx="12" ry="11.4596" fill="#C6CFFF"/>
<path d="M25.668 28.4433V35H24.9936V29.0428H23.4481V28.4433H25.668ZM28.9587 31.1316C29.9079 31.1316 30.5979 31.3033 31.0288 31.6467C31.4659 31.9839 31.6844 32.4585 31.6844 33.0705C31.6844 33.4514 31.5939 33.7917 31.4128 34.0914C31.2379 34.3912 30.9726 34.6285 30.6166 34.8033C30.2607 34.9719 29.8236 35.0562 29.3053 35.0562C28.837 35.0562 28.3905 34.9813 27.9659 34.8314C27.5475 34.6753 27.2103 34.4692 26.9543 34.2132L27.2821 33.6793C27.5006 33.9041 27.7879 34.0883 28.1438 34.2319C28.4998 34.3693 28.8838 34.438 29.2959 34.438C29.8392 34.438 30.2576 34.3162 30.5511 34.0727C30.8508 33.8292 31.0007 33.5045 31.0007 33.0986C31.0007 32.649 30.8321 32.3086 30.4949 32.0776C30.1639 31.8466 29.6019 31.731 28.8089 31.731H27.4132L27.7504 28.4433H31.3379V29.0428H28.3405L28.1157 31.1316H28.9587ZM34.3015 35.0468C33.9019 35.0468 33.5179 34.9906 33.1494 34.8782C32.7873 34.7596 32.5031 34.6128 32.2971 34.438L32.5968 33.9135C32.8029 34.0758 33.062 34.2101 33.3742 34.3162C33.6865 34.4161 34.0112 34.4661 34.3484 34.4661C34.798 34.4661 35.1289 34.3974 35.3412 34.26C35.5598 34.1164 35.6691 33.9166 35.6691 33.6606C35.6691 33.4795 35.6097 33.339 35.4911 33.2391C35.3725 33.1329 35.2226 33.0549 35.0415 33.0049C34.8604 32.9487 34.62 32.8956 34.3203 32.8457C33.9206 32.7707 33.599 32.6958 33.3555 32.6209C33.112 32.5397 32.9028 32.4054 32.7279 32.2181C32.5593 32.0308 32.475 31.7716 32.475 31.4407C32.475 31.0285 32.6468 30.6913 32.9902 30.4291C33.3336 30.1668 33.8113 30.0357 34.4233 30.0357C34.7418 30.0357 35.0602 30.0794 35.3787 30.1668C35.6972 30.248 35.9594 30.3573 36.1655 30.4946L35.8751 31.0285C35.4692 30.7475 34.9853 30.607 34.4233 30.607C33.9987 30.607 33.6771 30.682 33.4585 30.8318C33.2462 30.9817 33.1401 31.1784 33.1401 31.4219C33.1401 31.6093 33.1994 31.7591 33.318 31.8715C33.4429 31.9839 33.5959 32.0682 33.777 32.1244C33.9581 32.1744 34.2079 32.2275 34.5263 32.2837C34.9197 32.3586 35.2351 32.4335 35.4724 32.5085C35.7097 32.5834 35.9126 32.7114 36.0812 32.8925C36.2498 33.0736 36.3341 33.3234 36.3341 33.6418C36.3341 34.0727 36.153 34.4161 35.7908 34.6722C35.4349 34.9219 34.9385 35.0468 34.3015 35.0468Z" fill="black"/>
</svg>
