<svg width="60" height="60" viewBox="0 0 60 60" fill="none" xmlns="http://www.w3.org/2000/svg">
<circle cx="30" cy="30" r="30" fill="#334756"/>
<path d="M30 0C24.0666 0 18.2664 1.75947 13.3329 5.05591C8.39943 8.35235 4.55426 13.0377 2.28363 18.5195C0.0129986 24.0013 -0.581101 30.0333 0.576455 35.8527C1.73401 41.6721 4.59123 47.0176 8.78681 51.2132C12.9824 55.4088 18.3279 58.266 24.1473 59.4235C29.9667 60.5811 35.9987 59.987 41.4805 57.7164C46.9623 55.4457 51.6476 51.6006 54.9441 46.6671C58.2405 41.7336 60 35.9334 60 30C59.9895 22.0467 56.8254 14.4222 51.2016 8.79843C45.5778 3.17462 37.9533 0.0105348 30 0ZM26.25 41.25C26.25 41.7473 26.0525 42.2242 25.7008 42.5758C25.3492 42.9274 24.8723 43.125 24.375 43.125C23.8777 43.125 23.4008 42.9274 23.0492 42.5758C22.6976 42.2242 22.5 41.7473 22.5 41.25V18.75C22.5 18.2527 22.6976 17.7758 23.0492 17.4242C23.4008 17.0725 23.8777 16.875 24.375 16.875C24.8723 16.875 25.3492 17.0725 25.7008 17.4242C26.0525 17.7758 26.25 18.2527 26.25 18.75V41.25ZM37.5 41.25C37.5 41.7473 37.3025 42.2242 36.9508 42.5758C36.5992 42.9274 36.1223 43.125 35.625 43.125C35.1277 43.125 34.6508 42.9274 34.2992 42.5758C33.9475 42.2242 33.75 41.7473 33.75 41.25V18.75C33.75 18.2527 33.9475 17.7758 34.2992 17.4242C34.6508 17.0725 35.1277 16.875 35.625 16.875C36.1223 16.875 36.5992 17.0725 36.9508 17.4242C37.3025 17.7758 37.5 18.2527 37.5 18.75V41.25Z" fill="#C6CFFF"/>
</svg>
