<svg width="60" height="60" viewBox="0 0 60 60" fill="none" xmlns="http://www.w3.org/2000/svg">
<path d="M13.3329 5.05591C18.2664 1.75947 24.0666 0 30 0C37.9533 0.0105348 45.5778 3.17462 51.2016 8.79843C56.8254 14.4222 59.9895 22.0467 60 30C60 35.9334 58.2405 41.7336 54.9441 46.6671C51.6476 51.6006 46.9623 55.4457 41.4805 57.7164C35.9987 59.987 29.9667 60.5811 24.1473 59.4235C18.3279 58.266 12.9824 55.4088 8.78681 51.2132C4.59123 47.0176 1.73401 41.6721 0.576455 35.8527C-0.581101 30.0333 0.0129986 24.0013 2.28363 18.5195C4.55426 13.0377 8.39943 8.35235 13.3329 5.05591Z" fill="#C6CFFF"/>
<path d="M20.5082 13.5505L49.02 30.0118L20.5082 46.4731L20.5082 13.5505Z" fill="#C8ADE7" stroke="#334756"/>
</svg>
